<?xml version="1.0" standalone="no"?>
<!DOCTYPE svg PUBLIC "-//W3C//DTD SVG 20010904//EN"
 "http://www.w3.org/TR/2001/REC-SVG-20010904/DTD/svg10.dtd">
<svg version="1.0" xmlns="http://www.w3.org/2000/svg"
 width="700.000000pt" height="700.000000pt" viewBox="0 0 700.000000 700.000000"
 preserveAspectRatio="xMidYMid meet">
<metadata>
Created by potrace 1.14, written by Peter Selinger 2001-2017
</metadata>
<g transform="translate(0.000000,700.000000) scale(0.100000,-0.100000)"
fill="#000000" stroke="none">
<path d="M1127 6124 c-1 -1 -22 -4 -48 -7 -231 -28 -435 -224 -486 -467 -4
-19 -7 -989 -7 -2155 -1 -2041 0 -2122 18 -2185 63 -222 233 -380 457 -426 46
-10 4791 -12 4852 -2 203 31 378 164 455 345 50 118 48 34 47 2293 -1 2021 -2
2118 -19 2175 -22 71 -59 146 -95 195 -80 106 -216 195 -342 221 -39 9 -693
12 -2442 13 -1314 1 -2389 0 -2390 0z m4704 -1178 c0 -6 2 -793 2 -1749 l2
-1737 -75 0 c-99 -1 -4377 -1 -4500 0 l-95 0 2 1738 c0 955 2 1742 2 1748 1
16 4661 16 4662 0z"/>
<path d="M2167 3748 l-538 -541 541 -541 541 -540 206 207 207 206 -329 331
c-182 182 -332 333 -335 336 -2 2 146 155 329 338 l333 333 -206 207 c-113
113 -207 206 -209 205 -1 -1 -244 -244 -540 -541z"/>
<path d="M4081 4082 l-203 -205 328 -328 c181 -181 329 -333 329 -339 0 -6
-148 -159 -330 -341 l-329 -330 207 -207 207 -207 541 542 541 541 -529 528
c-291 291 -535 534 -543 540 -12 9 -54 -28 -219 -194z"/>
</g>
</svg>
